<svg xmlns="http://www.w3.org/2000/svg" width="26.527" height="91.472" viewBox="0 0 26.527 91.472">
  <g id="Group_4143" data-name="Group 4143" transform="translate(-503 -682.294)">
    <g id="Group_4141" data-name="Group 4141" transform="translate(10)">
      <path id="Path_10711" data-name="Path 10711" d="M20.72,185.325q-5.427,10.811-10.855,21.622l5.738.75a88.507,88.507,0,0,0-9.732-24.535c-2.031-3.49-7.459-.333-5.421,3.169a82.655,82.655,0,0,1,9.1,23.035c.589,2.55,4.531,3.153,5.737.749l10.855-21.621a3.217,3.217,0,0,0-1.126-4.295,3.17,3.17,0,0,0-4.3,1.126" transform="translate(493 562.134)" fill="#ffd729"/>
      <path id="Path_10714" data-name="Path 10714" d="M13.748,203.611s-3.711-41.195,10.21-82.655" transform="translate(493 562.134)" fill="none" stroke="#ffd729" stroke-linecap="round" stroke-miterlimit="10" stroke-width="5"/>
    </g>
  </g>
</svg>
