<svg xmlns="http://www.w3.org/2000/svg" width="26.526" height="89.854" viewBox="0 0 26.526 89.854">
  <g id="Group_4144" data-name="Group 4144" transform="translate(-955.447 -683.913)">
    <path id="Path_10712" data-name="Path 10712" d="M503.167,185.325q-5.427,10.811-10.855,21.622l5.738.75a88.507,88.507,0,0,0-9.732-24.535c-2.031-3.49-7.459-.333-5.421,3.169a82.656,82.656,0,0,1,9.1,23.035c.589,2.55,4.531,3.153,5.737.749l10.855-21.621a3.217,3.217,0,0,0-1.126-4.295,3.17,3.17,0,0,0-4.3,1.126" transform="translate(473 562.134)" fill="#ffd729"/>
    <path id="Path_10715" data-name="Path 10715" d="M499.62,121.852a566.16,566.16,0,0,1-4.112,83.751" transform="translate(473 562.134)" fill="none" stroke="#ffd729" stroke-linecap="round" stroke-miterlimit="10" stroke-width="5"/>
  </g>
</svg>
