<svg xmlns="http://www.w3.org/2000/svg" width="26.526" height="90.77" viewBox="0 0 26.526 90.77">
  <g id="Group_4145" data-name="Group 4145" transform="translate(-1390.491 -683.23)">
    <g id="Group_4142" data-name="Group 4142" transform="translate(-30)">
      <path id="Path_10713" data-name="Path 10713" d="M968.211,162.064q-5.427,10.811-10.855,21.622l5.738.75a88.507,88.507,0,0,0-9.732-24.535c-2.031-3.49-7.459-.333-5.421,3.169a82.66,82.66,0,0,1,9.1,23.034c.589,2.551,4.531,3.154,5.737.75l10.855-21.621a3.217,3.217,0,0,0-1.126-4.295,3.17,3.17,0,0,0-4.295,1.126" transform="translate(473 585.629)" fill="#ffd729"/>
      <path id="Path_10716" data-name="Path 10716" d="M955,121.866c9.643,29.8,5.719,60.777,6.311,81.546" transform="translate(473 562.134)" fill="none" stroke="#ffd729" stroke-miterlimit="10" stroke-width="5"/>
    </g>
  </g>
</svg>
